<?xml version="1.0" standalone="no"?>
<!DOCTYPE svg PUBLIC "-//W3C//DTD SVG 20010904//EN"
 "http://www.w3.org/TR/2001/REC-SVG-20010904/DTD/svg10.dtd">
<svg version="1.0" xmlns="http://www.w3.org/2000/svg"
 width="1029.000000pt" height="1028.000000pt" viewBox="0 0 1029.000000 1028.000000"
 preserveAspectRatio="xMidYMid meet">

<g transform="translate(0.000000,1028.000000) scale(0.100000,-0.100000)"
fill="#000000" stroke="none">
<path d="M4903 10233 c26 -2 68 -2 95 0 26 2 4 3 -48 3 -52 0 -74 -1 -47 -3z"/>
<path d="M5283 10233 c26 -2 68 -2 95 0 26 2 4 3 -48 3 -52 0 -74 -1 -47 -3z"/>
<path d="M4743 10223 c15 -2 37 -2 50 0 12 2 0 4 -28 4 -27 0 -38 -2 -22 -4z"/>
<path d="M5503 10223 c15 -2 37 -2 50 0 12 2 0 4 -28 4 -27 0 -38 -2 -22 -4z"/>
<path d="M4628 10213 c12 -2 30 -2 40 0 9 3 -1 5 -23 4 -22 0 -30 -2 -17 -4z"/>
<path d="M5628 10213 c12 -2 30 -2 40 0 9 3 -1 5 -23 4 -22 0 -30 -2 -17 -4z"/>
<path d="M4543 10203 c9 -2 23 -2 30 0 6 3 -1 5 -18 5 -16 0 -22 -2 -12 -5z"/>
<path d="M5723 10203 c9 -2 25 -2 35 0 9 3 1 5 -18 5 -19 0 -27 -2 -17 -5z"/>
<path d="M4463 10193 c9 -2 23 -2 30 0 6 3 -1 5 -18 5 -16 0 -22 -2 -12 -5z"/>
<path d="M5803 10193 c9 -2 23 -2 30 0 6 3 -1 5 -18 5 -16 0 -22 -2 -12 -5z"/>
<path d="M4388 10183 c6 -2 18 -2 25 0 6 3 1 5 -13 5 -14 0 -19 -2 -12 -5z"/>
<path d="M5873 10183 c9 -2 23 -2 30 0 6 3 -1 5 -18 5 -16 0 -22 -2 -12 -5z"/>
<path d="M4328 10173 c6 -2 18 -2 25 0 6 3 1 5 -13 5 -14 0 -19 -2 -12 -5z"/>
<path d="M5948 10173 c6 -2 18 -2 25 0 6 3 1 5 -13 5 -14 0 -19 -2 -12 -5z"/>
<path d="M4258 10163 c6 -2 18 -2 25 0 6 3 1 5 -13 5 -14 0 -19 -2 -12 -5z"/>
<path d="M6008 10163 c6 -2 18 -2 25 0 6 3 1 5 -13 5 -14 0 -19 -2 -12 -5z"/>
<path d="M4208 10153 c6 -2 18 -2 25 0 6 3 1 5 -13 5 -14 0 -19 -2 -12 -5z"/>
<path d="M6068 10153 c7 -3 16 -2 19 1 4 3 -2 6 -13 5 -11 0 -14 -3 -6 -6z"/>
<path d="M4158 10143 c7 -3 16 -2 19 1 4 3 -2 6 -13 5 -11 0 -14 -3 -6 -6z"/>
<path d="M6118 10143 c7 -3 16 -2 19 1 4 3 -2 6 -13 5 -11 0 -14 -3 -6 -6z"/>
<path d="M4108 10133 c7 -3 16 -2 19 1 4 3 -2 6 -13 5 -11 0 -14 -3 -6 -6z"/>
<path d="M6168 10133 c7 -3 16 -2 19 1 4 3 -2 6 -13 5 -11 0 -14 -3 -6 -6z"/>
<path d="M4058 10123 c7 -3 16 -2 19 1 4 3 -2 6 -13 5 -11 0 -14 -3 -6 -6z"/>
<path d="M6218 10123 c7 -3 16 -2 19 1 4 3 -2 6 -13 5 -11 0 -14 -3 -6 -6z"/>
<path d="M4018 10113 c7 -3 16 -2 19 1 4 3 -2 6 -13 5 -11 0 -14 -3 -6 -6z"/>
<path d="M6258 10113 c7 -3 16 -2 19 1 4 3 -2 6 -13 5 -11 0 -14 -3 -6 -6z"/>
<path d="M3978 10103 c7 -3 16 -2 19 1 4 3 -2 6 -13 5 -11 0 -14 -3 -6 -6z"/>
<path d="M6308 10103 c7 -3 16 -2 19 1 4 3 -2 6 -13 5 -11 0 -14 -3 -6 -6z"/>
<path d="M3928 10093 c7 -3 16 -2 19 1 4 3 -2 6 -13 5 -11 0 -14 -3 -6 -6z"/>
<path d="M6348 10093 c7 -3 16 -2 19 1 4 3 -2 6 -13 5 -11 0 -14 -3 -6 -6z"/>
<path d="M3888 10083 c7 -3 16 -2 19 1 4 3 -2 6 -13 5 -11 0 -14 -3 -6 -6z"/>
<path d="M6388 10083 c7 -3 16 -2 19 1 4 3 -2 6 -13 5 -11 0 -14 -3 -6 -6z"/>
<path d="M3848 10073 c7 -3 16 -2 19 1 4 3 -2 6 -13 5 -11 0 -14 -3 -6 -6z"/>
<path d="M6428 10073 c7 -3 16 -2 19 1 4 3 -2 6 -13 5 -11 0 -14 -3 -6 -6z"/>
<path d="M6468 10063 c7 -3 16 -2 19 1 4 3 -2 6 -13 5 -11 0 -14 -3 -6 -6z"/>
<path d="M3778 10053 c7 -3 16 -2 19 1 4 3 -2 6 -13 5 -11 0 -14 -3 -6 -6z"/>
<path d="M6545 10040 c11 -5 27 -9 35 -9 9 0 8 4 -5 9 -11 5 -27 9 -35 9 -9 0
-8 -4 5 -9z"/>
<path d="M3708 10033 c7 -3 16 -2 19 1 4 3 -2 6 -13 5 -11 0 -14 -3 -6 -6z"/>
<path d="M3638 10013 c7 -3 16 -2 19 1 4 3 -2 6 -13 5 -11 0 -14 -3 -6 -6z"/>
<path d="M6638 10013 c7 -3 16 -2 19 1 4 3 -2 6 -13 5 -11 0 -14 -3 -6 -6z"/>
<path d="M3555 9990 c-13 -6 -15 -9 -5 -9 8 0 22 4 30 9 18 12 2 12 -25 0z"/>
<path d="M6725 9985 c17 -8 37 -14 45 -14 8 0 -1 7 -20 14 -46 18 -64 17 -25
0z"/>
<path d="M3380 9930 c-18 -12 -2 -12 25 0 13 6 15 9 5 9 -8 0 -22 -4 -30 -9z"/>
<path d="M3300 9900 c-8 -5 -10 -10 -5 -10 6 0 17 5 25 10 8 5 11 10 5 10 -5
0 -17 -5 -25 -10z"/>
<path d="M4724 9885 c-923 -87 -1756 -414 -2480 -971 -348 -268 -672 -597
-921 -934 -539 -731 -843 -1540 -923 -2455 -15 -169 -15 -582 -1 -760 51 -606
203 -1163 466 -1700 169 -346 312 -573 563 -895 119 -153 361 -409 517 -550
781 -701 1701 -1109 2750 -1216 302 -31 751 -22 1085 22 1079 141 2096 668
2846 1474 336 362 575 710 794 1155 266 542 418 1096 470 1710 24 288 8 777
-35 1068 -112 753 -398 1460 -839 2077 -270 377 -648 766 -1001 1031 -105 79
-389 268 -470 314 -257 144 -435 230 -665 320 -398 155 -787 252 -1216 301
-190 22 -749 28 -940 9z m741 -85 c410 -30 768 -101 1155 -230 899 -298 1665
-847 2247 -1610 72 -95 263 -373 263 -384 0 -2 27 -49 60 -105 107 -181 238
-456 315 -661 210 -565 305 -1084 305 -1671 0 -1117 -393 -2182 -1116 -3029
-550 -644 -1280 -1134 -2084 -1399 -328 -108 -696 -184 -1050 -217 -219 -20
-754 -14 -950 10 -879 112 -1655 429 -2325 949 -693 539 -1218 1256 -1523
2082 -122 330 -210 706 -259 1105 -25 208 -25 803 0 1010 149 1218 691 2245
1602 3036 735 638 1714 1042 2698 1113 166 12 502 12 662 1z"/>
<path d="M4955 9371 c-49 -23 -88 -65 -104 -110 -14 -43 -15 -323 0 -375 27
-99 141 -166 258 -152 105 13 171 76 188 181 7 46 -4 55 -73 55 -55 0 -64 -8
-64 -55 0 -37 -47 -68 -94 -62 -71 10 -81 30 -84 174 -6 208 10 253 90 253 32
0 41 -5 63 -37 14 -21 25 -43 25 -50 0 -9 19 -13 65 -13 l65 0 0 35 c0 72 -51
137 -129 163 -53 18 -160 14 -206 -7z"/>
<path d="M5614 9363 c-18 -12 -56 -95 -118 -253 -32 -80 -62 -154 -67 -165
-25 -54 -59 -158 -59 -180 0 -21 6 -25 47 -31 55 -8 73 1 88 47 l12 34 84 -2
c96 -3 109 -12 109 -74 0 -35 3 -39 38 -48 20 -6 54 -11 75 -11 36 0 37 1 37
39 0 38 -9 115 -30 266 -5 39 -16 122 -25 185 -27 197 -18 177 -77 184 -28 4
-63 9 -77 12 -14 2 -31 1 -37 -3z m60 -230 c3 -16 8 -68 11 -118 l7 -90 -61 3
c-34 2 -61 7 -61 10 0 10 38 111 61 159 10 24 19 47 19 53 0 22 19 8 24 -17z"/>
<path d="M4183 9305 c-59 -19 -130 -70 -150 -108 -28 -53 -21 -144 21 -297 23
-82 47 -148 62 -168 85 -111 303 -102 375 18 21 34 39 128 31 165 -5 28 -20
31 -85 14 -41 -10 -42 -11 -39 -47 5 -58 -11 -89 -55 -102 -58 -18 -89 -1
-118 62 -13 29 -29 81 -35 115 -6 34 -18 79 -26 99 -30 72 1 131 74 141 34 5
42 2 60 -22 12 -15 22 -36 22 -47 0 -27 26 -33 78 -17 63 20 75 54 38 109 -42
64 -89 93 -154 96 -32 2 -76 -3 -99 -11z"/>
<path d="M6134 9236 c-59 -26 -108 -100 -137 -207 -9 -29 -25 -87 -36 -126
-26 -92 -27 -158 -2 -199 54 -88 184 -134 295 -103 38 11 126 89 126 112 0 7
6 24 14 38 25 48 76 245 76 293 0 62 -20 106 -64 142 -68 57 -201 81 -272 50z
m167 -119 c38 -24 41 -77 9 -170 -11 -31 -20 -65 -20 -75 0 -30 -36 -115 -60
-139 -17 -18 -33 -23 -71 -23 -44 0 -50 3 -65 32 -18 35 -15 77 15 173 11 33
27 85 36 115 9 30 29 68 43 83 23 24 32 27 61 22 18 -4 42 -12 52 -18z"/>
<path d="M3778 9220 c-20 -11 -39 -28 -43 -39 -4 -12 -19 -21 -47 -25 -67 -11
-70 -18 -36 -89 17 -34 45 -101 63 -148 18 -47 47 -114 64 -147 40 -80 41
-122 2 -145 -43 -25 -97 -22 -125 7 -12 14 -48 85 -79 158 -30 73 -68 159 -83
192 l-26 58 -51 -6 c-28 -4 -58 -11 -68 -17 -17 -8 -17 -12 -3 -51 8 -23 18
-46 23 -52 4 -6 25 -51 46 -101 58 -137 120 -258 147 -282 29 -28 89 -53 124
-53 62 0 162 40 211 84 l48 44 -1 68 c0 62 -7 85 -68 227 -75 178 -87 217 -63
217 8 0 25 8 38 19 21 17 22 21 11 60 -15 47 -28 50 -84 21z"/>
<path d="M6889 8928 c-23 -40 -48 -84 -56 -97 -8 -12 -27 -46 -43 -75 -15 -28
-42 -78 -60 -111 -17 -33 -38 -67 -45 -75 -15 -17 -65 -115 -65 -127 0 -5 24
-21 52 -35 41 -21 55 -25 65 -15 6 7 43 68 81 137 39 69 77 134 86 145 14 19
15 17 16 -25 0 -43 -13 -214 -25 -312 -6 -47 -5 -47 34 -68 68 -34 71 -32 160
105 127 195 251 394 251 403 0 13 -108 74 -120 67 -6 -3 -17 -21 -25 -38 -22
-46 -110 -187 -135 -217 l-21 -25 5 85 c4 47 9 133 13 191 l6 106 -48 26 c-70
40 -78 37 -126 -45z"/>
<path d="M3082 8884 l-42 -25 27 -47 c15 -26 37 -63 48 -82 25 -39 51 -108 44
-113 -11 -10 -127 -77 -132 -77 -3 0 -33 42 -67 93 -87 128 -80 123 -126 99
-22 -11 -47 -29 -56 -39 -17 -19 -13 -26 115 -214 181 -268 210 -307 226 -314
13 -5 94 36 106 55 6 10 -49 103 -91 153 -39 46 -32 72 29 107 28 17 61 29 72
28 12 -2 36 -29 62 -68 72 -112 82 -122 112 -115 37 9 71 44 71 74 0 16 -39
86 -99 178 -55 84 -119 185 -142 225 -71 122 -81 127 -157 82z"/>
<path d="M7423 8601 c-33 -21 -166 -176 -230 -269 -30 -42 -38 -64 -41 -111
-4 -49 0 -64 21 -97 34 -54 63 -78 127 -108 93 -44 144 -31 227 57 119 126
121 146 28 211 -36 25 -69 46 -72 46 -12 0 -63 -54 -63 -66 0 -7 11 -21 25
-32 14 -11 25 -27 25 -35 0 -15 -73 -87 -89 -87 -25 0 -62 22 -77 45 -33 51
-23 75 91 215 103 126 108 130 145 130 30 0 46 -7 69 -31 35 -35 37 -48 16
-89 -15 -29 -15 -30 27 -60 23 -17 49 -29 57 -28 43 8 67 139 36 197 -18 35
-79 85 -136 111 -58 26 -143 26 -186 1z"/>
<path d="M2519 8497 c-214 -173 -204 -163 -192 -189 6 -13 26 -32 45 -42 l35
-19 46 32 c25 17 50 31 55 31 9 0 99 -95 222 -235 91 -104 121 -135 131 -135
16 0 89 62 89 76 0 15 -155 203 -213 259 -41 39 -119 130 -125 146 -2 4 22 26
53 49 38 28 53 45 48 54 -11 18 -61 76 -65 75 -2 0 -60 -46 -129 -102z"/>
<path d="M3805 8448 c-40 -14 -39 -12 -20 -52 19 -41 39 -45 88 -20 18 9 34
18 35 20 2 1 -4 16 -14 33 -20 33 -38 37 -89 19z"/>
<path d="M7935 8300 c-3 -5 -50 -46 -103 -91 -204 -170 -281 -259 -282 -325 0
-47 35 -129 71 -165 39 -39 130 -79 180 -79 62 0 98 28 311 238 150 148 146
137 86 204 l-33 37 -165 -160 c-180 -176 -196 -189 -222 -189 -30 0 -78 52
-84 90 -6 34 -2 39 68 105 40 39 121 110 181 159 59 49 107 95 107 102 0 15
-79 84 -96 84 -7 0 -16 -4 -19 -10z"/>
<path d="M5580 8289 c-102 -5 -332 -12 -512 -15 l-327 -6 -103 -105 c-201
-204 -434 -431 -528 -513 -164 -144 -200 -182 -200 -211 0 -15 7 -29 16 -33 9
-3 66 -6 129 -6 l112 0 5 -247 c3 -137 3 -254 1 -260 -3 -7 -20 -15 -39 -19
-40 -7 -48 -28 -36 -94 7 -40 11 -45 37 -48 53 -6 55 -13 55 -163 0 -76 -4
-140 -9 -143 -5 -3 -91 -19 -192 -35 -101 -17 -197 -35 -214 -40 -16 -5 -59
-12 -95 -15 -262 -24 45 -41 560 -30 377 7 438 2 303 -26 l-68 -14 55 -7 c69
-9 1340 -9 1475 0 l100 6 -85 22 -85 21 405 1 c416 1 690 9 690 21 0 10 -332
67 -506 87 l-51 6 -7 105 c-3 58 -6 125 -6 149 l0 43 40 0 c50 0 62 23 52 96
-6 39 -11 50 -28 52 -20 3 -21 11 -27 174 -3 94 -3 206 0 249 l6 79 51 0 c28
0 66 4 84 10 22 6 52 6 85 -1 56 -10 117 -3 117 14 0 6 -91 102 -203 212 -223
219 -333 339 -507 553 l-115 141 -125 -1 c-69 -1 -208 -5 -310 -9z m350 -72
c0 -7 -30 -42 -66 -77 -36 -36 -108 -119 -159 -185 -52 -66 -102 -129 -112
-140 -10 -11 -57 -69 -105 -130 -124 -159 -160 -195 -192 -195 -45 0 -41 25
11 87 131 154 119 171 -20 29 -96 -98 -137 -126 -137 -93 0 8 17 38 38 68 61
86 58 97 -10 34 -35 -32 -70 -65 -78 -74 -40 -41 -59 -53 -79 -46 -12 3 -21
11 -21 17 0 6 23 43 51 81 27 38 49 71 47 73 -2 1 -46 -37 -98 -86 -86 -81
-98 -89 -130 -87 -45 3 -43 19 12 100 22 32 38 60 36 62 -2 2 -44 -34 -93 -81
-58 -54 -98 -84 -112 -84 -13 0 -23 3 -23 8 0 10 67 111 93 140 11 12 15 22 9
22 -11 0 -84 -59 -172 -139 -46 -41 -100 -56 -100 -27 0 7 25 44 55 82 30 37
52 70 50 73 -4 4 -75 -51 -124 -97 -53 -50 -89 -72 -114 -72 -20 0 -27 5 -27
19 0 11 4 21 9 23 12 4 114 129 109 133 -4 4 -107 -74 -174 -134 -38 -33 -54
-41 -85 -41 -22 0 -39 3 -39 8 0 4 28 38 61 75 34 37 60 70 58 72 -6 6 -97
-59 -159 -113 -48 -43 -65 -52 -95 -52 l-37 0 36 43 c62 71 68 76 181 172 61
50 204 185 319 298 191 189 212 207 244 207 42 0 40 -7 -24 -89 -26 -34 -45
-63 -42 -66 3 -3 46 33 96 80 73 69 96 85 121 85 17 0 31 -4 31 -9 0 -5 -21
-37 -46 -70 -26 -34 -43 -65 -40 -68 4 -4 41 28 84 70 77 76 78 77 130 77 28
0 52 -4 52 -9 0 -5 -15 -29 -34 -54 -18 -24 -42 -57 -52 -73 l-19 -29 30 22
c17 12 56 47 87 78 62 62 111 81 180 70 35 -6 37 -8 27 -28 -6 -12 -29 -45
-50 -73 -22 -28 -39 -54 -39 -58 0 -11 78 52 137 112 51 51 53 52 112 52 33 0
62 -4 65 -8 3 -5 -13 -34 -36 -66 -22 -31 -38 -59 -36 -61 2 -2 39 27 81 65
72 65 81 70 122 70 25 0 45 -3 45 -7 -1 -5 -18 -28 -40 -53 -67 -75 -24 -61
58 20 41 41 75 57 120 59 12 1 22 -5 22 -12z m63 -493 c74 -64 99 -96 56 -74
-29 16 -156 139 -143 140 6 0 45 -30 87 -66z m192 -39 c33 -32 49 -50 35 -41
-14 9 -32 19 -40 23 -21 10 -110 95 -110 105 0 13 45 -21 115 -87z m148 -5
c67 -56 89 -87 40 -54 -42 27 -133 107 -133 116 0 13 19 0 93 -62z m-400 -30
c34 -33 55 -59 47 -60 -14 0 -108 83 -140 124 -29 37 27 -1 93 -64z m-509
-292 c3 -13 6 -125 6 -250 l0 -228 -23 0 -24 0 -6 198 c-6 175 -4 249 9 290 6
20 31 14 38 -10z m-114 -25 c2 -2 6 -93 8 -201 4 -208 -2 -252 -36 -252 -17 0
-20 11 -26 92 -8 116 -8 306 0 347 6 26 10 30 28 25 11 -4 23 -8 26 -11z
m-102 -165 c7 -95 12 -199 12 -231 l0 -58 -37 3 -38 3 -3 195 c-3 232 0 260
31 260 23 0 23 -4 35 -172z m-315 148 c8 -19 -34 -26 -155 -26 l-100 0 6 -27
c10 -42 20 -327 12 -357 -4 -17 -13 -26 -26 -26 -19 0 -20 7 -20 218 0 120 3
222 7 225 3 4 66 7 139 7 103 0 133 -3 137 -14z m91 -47 c3 -34 6 -136 6 -225
l0 -164 -24 0 c-15 0 -27 7 -30 18 -8 29 -19 409 -12 421 4 6 18 11 30 11 21
0 24 -6 30 -61z m108 -61 c6 -123 2 -292 -7 -315 -2 -7 -13 -13 -23 -13 -25 0
-32 64 -32 286 l0 164 28 0 29 0 5 -122z m-709 -79 c9 -216 6 -252 -26 -247
-22 3 -22 5 -25 219 l-2 216 22 -2 c23 -2 23 -4 31 -186z m87 -29 l0 -220 -24
0 c-24 0 -25 2 -28 93 -2 50 -2 149 0 220 4 127 4 127 28 127 l24 0 0 -220z
m98 -1 l2 -216 -22 1 -23 1 -3 218 -2 218 22 -3 23 -3 3 -216z m-275 84 c4
-71 7 -165 7 -209 0 -75 -2 -82 -22 -87 -12 -3 -25 -4 -30 -1 -4 3 -8 99 -8
215 l0 209 23 0 c23 0 24 -2 30 -127z m1296 -38 c1 -107 -8 -163 -21 -139 -8
16 -10 181 -2 241 11 89 22 39 23 -102z m79 10 c0 -60 -3 -121 -7 -135 -12
-40 -22 102 -14 200 9 115 22 76 21 -65z m82 -5 c0 -80 -4 -130 -10 -130 -6 0
-10 50 -10 130 0 80 4 130 10 130 6 0 10 -50 10 -130z m99 -12 c1 -59 -3 -109
-8 -112 -11 -7 -21 131 -14 201 9 87 21 38 22 -89z m323 42 c4 -19 5 -69 1
-110 -6 -71 -7 -73 -14 -35 -4 22 -8 68 -8 103 l-1 62 -60 0 -60 0 0 -140 c0
-77 -4 -140 -9 -140 -21 0 -26 257 -6 290 4 7 35 10 78 8 l71 -3 8 -35z m207
-138 c0 -52 -3 -71 -9 -57 -12 29 -12 148 0 140 6 -3 10 -41 9 -83z m-991
-224 c17 -17 15 -25 -10 -32 -13 -3 -292 -3 -620 1 -571 6 -598 7 -598 25 0
17 24 18 608 18 460 0 611 -3 620 -12z m886 6 c25 -4 46 -10 46 -14 0 -4 -170
-11 -379 -15 -375 -7 -434 -3 -416 26 7 10 673 13 749 3z m-1677 -104 c30 0
53 -4 51 -8 -7 -20 -264 -282 -275 -282 -10 0 -13 36 -13 151 l0 152 92 -7
c50 -3 116 -6 145 -6z m723 -150 l0 -150 -90 0 -90 0 0 150 0 150 90 0 90 0 0
-150z m974 30 c4 -67 4 -143 0 -170 l-7 -50 -71 0 c-39 0 -143 4 -231 9 -88 6
-218 13 -290 16 -71 3 -145 8 -162 12 l-33 5 0 149 0 149 393 0 394 0 7 -120z
m-1305 96 c8 -10 6 -20 -11 -42 -12 -16 -27 -32 -33 -36 -14 -11 -225 -10
-225 1 0 5 20 27 45 50 l45 41 84 0 c58 0 87 -4 95 -14z m-725 -62 c3 -9 6
-58 6 -110 0 -73 -3 -94 -14 -94 -17 0 -29 100 -20 169 7 52 17 64 28 35z
m1137 -90 c8 -92 1 -156 -15 -151 -7 2 -12 46 -14 121 -2 92 0 117 10 114 8
-3 15 -33 19 -84z m971 -28 c-2 -25 -8 -43 -13 -40 -10 6 -12 77 -3 87 14 14
19 -3 16 -47z m-1492 14 c-27 -38 -42 -41 -175 -38 l-109 3 34 32 35 33 118 0
118 0 -21 -30z m130 -71 l0 -49 -45 0 c-25 0 -45 2 -45 5 0 14 74 103 82 99 4
-3 8 -27 8 -55z m-242 -54 l-38 -35 -120 0 c-129 0 -129 0 -87 48 19 21 28 22
151 22 l131 -1 -37 -34z"/>
<path d="M5292 7928 c-73 -77 -142 -160 -142 -171 0 -14 52 28 101 80 52 55
113 142 106 149 -3 3 -32 -23 -65 -58z"/>
<path d="M5426 7880 c-90 -94 -109 -120 -87 -120 10 0 156 152 178 187 35 53
0 27 -91 -67z"/>
<path d="M5537 7882 c-68 -90 -75 -102 -57 -102 9 0 107 127 129 168 26 49 -8
17 -72 -66z"/>
<path d="M4696 7850 c-102 -107 -128 -142 -88 -121 44 23 212 215 200 227 -3
2 -53 -45 -112 -106z"/>
<path d="M5040 7923 c-1 -5 -28 -37 -61 -72 -63 -68 -86 -101 -70 -101 12 0
112 110 134 148 10 18 13 32 8 32 -6 0 -11 -3 -11 -7z"/>
<path d="M5101 7863 c-34 -37 -61 -71 -61 -75 0 -18 21 -5 57 36 37 43 79 106
70 106 -3 0 -33 -30 -66 -67z"/>
<path d="M4516 7835 c-73 -73 -88 -95 -65 -95 14 0 133 120 149 149 20 39 -7
21 -84 -54z"/>
<path d="M4819 7843 c-55 -52 -96 -103 -81 -103 12 0 70 57 111 109 43 54 32
52 -30 -6z"/>
<path d="M5840 6596 c-36 -13 -87 -34 -115 -46 -27 -12 -81 -32 -120 -45 l-70
-22 45 -6 c41 -6 518 -27 618 -27 37 0 42 3 42 23 0 20 -18 33 -115 82 -139
71 -186 78 -285 41z"/>
<path d="M3890 8079 c-163 -77 -209 -276 -89 -384 53 -48 96 -65 162 -65 50 0
57 4 118 53 114 95 169 153 169 180 0 37 -26 103 -55 142 -66 85 -208 120
-305 74z"/>
<path d="M1971 7955 c-23 -32 -31 -53 -27 -68 3 -13 41 -74 86 -137 77 -111
95 -148 67 -137 -8 3 -61 19 -118 37 -57 17 -123 38 -147 47 -25 9 -46 12 -51
7 -24 -28 -102 -136 -99 -139 18 -15 127 -85 132 -85 4 0 23 -12 43 -27 19
-16 70 -48 113 -73 43 -25 117 -69 164 -98 54 -33 93 -51 104 -48 22 8 66 72
59 89 -3 7 -69 51 -147 97 -183 109 -193 121 -70 90 41 -10 88 -23 103 -29 48
-19 65 -13 93 29 l27 40 -27 38 c-14 20 -40 55 -56 76 -63 81 -38 75 119 -29
71 -47 133 -85 139 -85 11 0 72 66 72 79 0 9 -177 141 -419 312 -46 32 -94 59
-106 59 -14 0 -33 -16 -54 -45z"/>
<path d="M6520 7932 c-54 -27 -90 -53 -90 -64 0 -6 61 -71 135 -144 121 -120
139 -134 170 -134 19 0 69 -11 112 -25 43 -14 89 -25 103 -24 23 0 22 3 -23
44 -27 25 -44 45 -39 45 5 0 42 -14 82 -31 75 -32 210 -52 210 -32 0 6 -6 13
-12 16 -7 2 -100 70 -207 150 -246 184 -301 217 -361 217 -25 -1 -61 -9 -80
-18z"/>
<path d="M8294 7884 c-17 -27 -56 -92 -87 -144 -83 -142 -98 -159 -209 -235
-56 -38 -103 -74 -105 -80 -1 -5 15 -30 36 -53 l40 -44 68 42 c37 23 89 54
114 71 37 23 81 36 222 63 176 34 217 47 217 68 0 6 -12 31 -27 55 -27 42 -30
44 -68 40 -22 -2 -75 -14 -117 -27 -43 -13 -81 -21 -84 -17 -7 7 29 65 83 133
18 23 33 50 33 60 0 11 -19 41 -43 68 l-42 48 -31 -48z"/>
<path d="M3538 7485 c-31 -13 -125 -70 -210 -126 -141 -93 -362 -209 -483
-255 -61 -22 -43 -28 65 -22 92 6 167 32 330 114 106 53 245 103 256 91 2 -2
-54 -41 -124 -88 -69 -46 -125 -88 -124 -94 1 -6 37 -9 85 -9 94 2 210 36 290
85 106 65 169 62 339 -17 53 -25 113 -48 132 -51 l36 -6 0 51 c0 59 -2 62
-134 137 -48 28 -121 73 -164 102 -179 121 -203 128 -294 88z"/>
<path d="M8515 7379 c-77 -39 -203 -99 -280 -136 -77 -36 -146 -71 -153 -78
-11 -10 -2 -36 55 -149 66 -132 69 -136 100 -136 40 0 83 19 83 37 0 8 -18 48
-41 90 l-40 77 53 28 c29 15 61 27 70 28 11 0 30 -25 54 -69 l37 -69 46 20
c74 32 77 38 47 96 -14 28 -30 53 -36 57 -5 3 -10 16 -10 28 0 18 10 25 61 40
72 21 71 22 121 -81 17 -35 37 -66 44 -69 17 -6 114 26 114 37 0 13 -141 282
-158 303 -8 9 -18 17 -21 16 -3 0 -69 -32 -146 -70z"/>
<path d="M8813 7398 c-32 -15 -29 -44 8 -86 17 -20 38 -50 45 -69 17 -39 32
-41 68 -8 30 28 32 44 10 88 -38 76 -80 99 -131 75z"/>
<path d="M1287 7217 c-9 -30 -17 -63 -17 -73 0 -21 49 -64 72 -64 7 0 27 31
45 68 l31 67 -51 27 c-29 15 -55 27 -58 28 -3 0 -13 -24 -22 -53z"/>
<path d="M1487 7199 c-21 -39 -37 -79 -37 -88 0 -10 37 -44 87 -82 47 -35 98
-73 112 -84 198 -149 322 -235 338 -235 12 0 53 77 53 99 0 13 -15 31 -40 47
-43 29 -49 50 -25 92 8 15 19 40 25 55 10 28 12 28 76 25 l67 -3 17 35 c35 68
34 76 -7 88 -21 6 -112 24 -203 41 -91 17 -194 38 -230 45 -125 27 -172 36
-184 36 -7 0 -29 -32 -49 -71z m317 -114 c43 -8 82 -13 85 -10 4 2 12 0 19 -4
9 -6 6 -19 -14 -54 -14 -26 -30 -49 -35 -52 -9 -6 -171 120 -178 138 -2 6 6 7
20 3 13 -4 59 -13 103 -21z"/>
<path d="M6826 7219 c-32 -11 -109 -48 -172 -82 l-114 -61 0 -65 0 -64 43 6
c23 4 67 13 97 22 90 25 145 20 287 -28 123 -42 262 -69 249 -49 -3 6 -49 31
-102 57 -53 25 -94 48 -92 49 5 4 123 -9 203 -23 39 -6 126 -10 195 -9 l125 3
-101 32 c-55 18 -154 60 -220 94 -230 119 -249 128 -294 133 -31 4 -63 -1
-104 -15z"/>
<path d="M3570 6965 c-19 -7 -84 -43 -145 -80 -100 -60 -114 -66 -150 -60
-124 19 -114 20 -262 -39 -78 -31 -148 -56 -158 -56 -26 0 -115 -41 -110 -51
5 -8 1335 -1 1344 7 2 2 -4 13 -14 24 -10 11 -20 41 -23 67 l-5 48 -150 75
c-141 70 -155 75 -221 77 -41 1 -86 -4 -106 -12z"/>
<path d="M8835 6950 c-170 -55 -320 -100 -332 -100 -8 0 -35 -8 -61 -19 -26
-10 -66 -24 -89 -31 -62 -19 -78 -40 -63 -83 7 -18 19 -42 26 -51 12 -16 15
-17 41 -3 56 31 283 87 283 70 0 -6 -37 -41 -82 -79 -127 -105 -178 -155 -178
-174 0 -31 31 -120 42 -120 6 0 104 30 217 66 113 36 244 78 290 93 47 15 89
34 95 43 11 19 -18 93 -40 102 -12 5 -44 -4 -227 -60 -107 -33 -99 -22 132
193 l54 50 -19 61 c-10 34 -21 62 -24 61 -3 0 -32 -9 -65 -19z"/>
<path d="M6805 6715 c-38 -13 -104 -38 -145 -55 -74 -31 -123 -50 -147 -56 -7
-2 -13 -15 -13 -29 l0 -25 523 0 522 1 -115 40 c-63 22 -142 42 -175 46 -35 3
-93 20 -139 40 -78 33 -181 63 -221 63 -11 0 -51 -11 -90 -25z"/>
<path d="M3633 6584 c-35 -7 -75 -20 -91 -28 -15 -8 -86 -19 -157 -25 -146
-13 -243 -27 -277 -40 -27 -11 511 -13 820 -2 163 5 205 9 212 21 26 41 7 56
-98 74 -112 19 -322 20 -409 0z"/>
<path d="M7199 6143 c-14 -16 -40 -48 -59 -71 -41 -54 -33 -62 66 -62 63 0 75
3 113 31 45 32 44 32 95 -13 16 -15 38 -18 113 -18 61 0 93 4 93 11 0 13 -28
50 -82 107 l-40 42 -137 0 c-137 0 -137 0 -162 -27z"/>
<path d="M2767 6095 c-57 -80 -54 -85 46 -85 74 0 91 6 201 77 49 32 66 47 58
55 -6 6 -65 13 -134 15 l-123 5 -48 -67z"/>
<path d="M1416 5931 l-90 -6 3 -500 c2 -367 6 -502 14 -507 7 -4 179 -8 383
-8 293 0 374 3 382 13 6 7 12 45 14 85 4 104 13 101 -268 102 l-232 0 -5 43
c-3 23 -6 206 -6 406 -1 201 -3 366 -5 368 -8 8 -106 10 -190 4z"/>
<path d="M2619 5893 c-12 -27 -29 -70 -38 -98 -10 -27 -36 -99 -58 -160 -71
-192 -84 -229 -98 -275 -8 -25 -41 -119 -75 -210 -35 -97 -59 -177 -58 -195 4
-37 23 -43 144 -44 117 -1 128 7 158 114 l22 80 181 3 c211 3 196 10 229 -112
15 -53 24 -70 42 -77 27 -11 124 -12 211 -2 69 7 66 1 42 83 -15 54 -120 352
-206 585 -42 116 -86 235 -97 265 -33 92 -28 90 -215 90 l-164 0 -20 -47z
m227 -337 c13 -37 28 -74 33 -80 6 -7 13 -27 16 -46 3 -19 10 -39 14 -45 5 -5
14 -27 19 -48 10 -35 9 -39 -11 -45 -12 -4 -73 -6 -134 -4 l-113 4 14 27 c8
15 18 44 22 66 4 22 18 63 31 92 12 30 23 65 23 78 0 14 4 25 10 25 5 0 12 11
16 26 11 44 36 24 60 -50z"/>
<path d="M3556 5933 l-29 -5 5 -493 c3 -394 7 -496 17 -509 12 -14 33 -16 135
-14 l121 3 5 295 5 295 22 -22 c12 -12 53 -68 92 -125 38 -57 94 -137 125
-178 30 -41 82 -114 116 -162 33 -48 69 -92 80 -98 20 -11 218 -14 244 -4 14
5 16 59 16 503 l0 498 -23 12 c-14 8 -60 11 -132 9 l-110 -3 -3 -297 c-1 -180
-6 -298 -12 -298 -10 0 -63 68 -137 177 -26 39 -97 144 -158 234 -60 89 -113
166 -116 171 -6 9 -219 19 -263 11z"/>
<path d="M5240 5443 c0 -375 3 -502 12 -511 17 -17 259 -17 276 0 8 8 12 56
12 151 l0 139 39 39 c22 23 45 37 52 33 8 -3 65 -78 127 -167 166 -238 130
-212 296 -215 79 -1 147 2 155 7 19 12 8 38 -43 101 -19 25 -112 140 -205 256
l-169 211 194 196 c120 122 194 204 194 217 0 10 -9 24 -19 30 -22 11 -256 13
-283 2 -17 -7 -147 -153 -223 -251 -23 -31 -59 -72 -79 -90 l-36 -35 0 170 c0
130 -3 175 -14 189 -12 17 -30 20 -150 23 l-136 4 0 -499z"/>
<path d="M6423 5933 c-10 -4 -11 -112 -7 -506 4 -276 9 -504 11 -507 10 -11
241 -12 262 -1 21 12 21 12 21 504 0 370 -3 496 -12 505 -12 12 -248 17 -275
5z"/>
<path d="M6972 5928 c-15 -15 -17 -943 -2 -982 l10 -26 385 0 385 0 0 79 c0
44 -3 86 -6 95 -5 14 -31 16 -184 16 -97 0 -205 3 -239 6 l-61 7 0 103 0 104
153 0 c83 0 169 3 190 6 l37 7 0 84 c0 80 -1 84 -26 93 -14 6 -99 10 -190 10
l-164 0 0 105 0 105 229 0 c172 0 232 3 237 12 5 7 8 44 8 82 0 108 23 102
-396 104 -260 1 -358 -2 -366 -10z"/>
<path d="M7993 5933 c-10 -4 -13 -103 -13 -447 0 -244 3 -471 6 -505 l7 -61
128 0 129 0 0 290 c0 182 4 290 10 290 11 0 47 -47 163 -207 42 -59 104 -145
136 -190 33 -45 76 -107 97 -137 l37 -56 122 0 c91 0 125 4 134 13 8 10 12
161 13 506 2 421 0 494 -12 502 -8 5 -69 8 -135 7 l-120 -3 -3 -292 c-1 -161
-6 -293 -11 -293 -15 0 -34 26 -318 441 -51 75 -100 139 -109 143 -19 7 -243
7 -261 -1z"/>
<path d="M3385 4730 c-11 -4 -28 -22 -38 -39 -18 -31 -18 -31 5 -31 20 1 98
60 98 75 0 8 -43 5 -65 -5z"/>
<path d="M3270 4641 c0 -48 110 -71 150 -31 21 21 27 50 10 50 -5 0 -19 -9
-30 -20 -11 -11 -31 -20 -45 -20 -14 0 -34 9 -45 20 -25 25 -40 25 -40 1z"/>
<path d="M4660 4625 c19 -20 44 -35 57 -35 28 0 28 4 2 41 -16 23 -28 29 -57
29 l-36 0 34 -35z"/>
<path d="M5720 4625 c23 -24 43 -35 62 -35 l28 0 -22 35 c-20 30 -28 35 -62
35 l-40 0 34 -35z"/>
<path d="M3713 4550 c-105 -25 -161 -155 -119 -273 27 -75 80 -110 168 -110
77 0 132 37 157 106 10 27 9 27 -30 27 -33 0 -41 -4 -49 -24 -5 -14 -18 -30
-29 -35 -27 -15 -82 -13 -103 3 -23 17 -48 77 -48 115 0 113 102 173 170 101
21 -23 37 -30 64 -30 42 0 44 6 13 50 -39 59 -121 88 -194 70z"/>
<path d="M6175 4553 c-11 -2 -30 -6 -42 -8 -30 -7 -81 -51 -99 -87 -19 -37
-21 -156 -4 -190 35 -67 92 -101 170 -101 70 0 130 30 161 80 20 31 24 52 24
114 0 65 -4 81 -27 116 -36 54 -120 90 -183 76z m101 -94 c26 -28 29 -36 29
-100 0 -67 -2 -72 -33 -100 -93 -83 -208 16 -172 149 22 84 118 112 176 51z"/>
<path d="M6723 4551 c-96 -24 -147 -116 -129 -235 14 -93 80 -149 175 -149 68
0 112 21 140 66 31 51 28 67 -14 67 -19 0 -35 -3 -35 -8 0 -4 -11 -20 -25 -35
-38 -40 -107 -34 -142 12 -17 23 -26 85 -18 130 15 89 107 123 165 61 21 -23
37 -30 65 -30 33 0 36 2 30 23 -22 71 -126 119 -212 98z"/>
<path d="M2800 4360 l0 -190 88 0 c125 1 171 12 204 49 37 41 37 88 2 131 -25
29 -25 32 -9 44 12 9 18 26 18 55 0 78 -46 101 -205 101 l-98 0 0 -190z m228
92 c6 -40 -14 -52 -89 -52 l-69 0 0 40 0 41 78 -3 c72 -3 77 -5 80 -26z m-14
-122 c20 -7 26 -17 26 -38 0 -43 -16 -52 -97 -52 l-73 0 0 50 0 50 59 0 c33 0
71 -4 85 -10z"/>
<path d="M3312 4538 c-13 -17 -132 -333 -132 -353 0 -10 10 -15 28 -15 35 0
45 8 61 48 13 32 14 32 86 32 l72 0 15 -39 c14 -35 20 -40 48 -39 17 1 34 6
36 13 3 6 -24 89 -59 185 l-64 175 -40 3 c-24 2 -44 -2 -51 -10z m67 -140 c29
-86 29 -88 -24 -88 -30 0 -45 4 -45 13 0 15 40 137 45 137 2 0 13 -28 24 -62z"/>
<path d="M4170 4359 l0 -190 38 3 37 3 3 83 3 83 76 -3 75 -3 2 -80 1 -80 38
-3 37 -3 0 191 0 191 -37 -3 -38 -3 -3 -72 -3 -73 -74 0 -75 0 0 75 0 75 -40
0 -40 0 0 -191z"/>
<path d="M4670 4508 c-24 -54 -120 -313 -120 -326 0 -6 16 -10 36 -10 33 0 38
4 52 39 l15 40 75 -3 c74 -3 76 -4 85 -33 5 -16 11 -32 13 -33 3 -5 84 -13 84
-8 0 6 -130 357 -135 367 -4 5 -24 9 -46 9 -36 0 -41 -3 -59 -42z m97 -164 l6
-34 -47 0 c-25 0 -46 3 -46 7 0 4 10 38 22 76 l23 70 18 -43 c10 -23 21 -57
24 -76z"/>
<path d="M5295 4538 c-3 -8 -4 -92 -3 -188 l3 -175 138 -1 137 -1 0 33 0 34
-100 0 -99 0 -3 153 -3 152 -33 3 c-20 2 -34 -2 -37 -10z"/>
<path d="M5753 4542 c-10 -6 -143 -346 -143 -365 0 -12 67 -7 78 6 6 6 13 24
17 40 7 27 8 27 85 27 77 0 78 0 85 -27 4 -16 11 -34 17 -40 11 -14 78 -18 78
-5 0 5 -27 82 -61 173 -33 90 -63 172 -66 182 -4 12 -16 17 -42 17 -20 0 -41
-4 -48 -8z m61 -147 c9 -30 19 -61 22 -70 5 -12 -3 -15 -45 -15 -28 0 -51 2
-51 5 0 19 43 135 50 135 5 0 16 -25 24 -55z"/>
<path d="M7113 4544 c-7 -3 -13 -10 -13 -16 0 -5 -27 -82 -61 -171 -33 -89
-61 -166 -62 -172 -1 -5 15 -11 36 -12 37 -2 40 0 54 37 l16 40 73 0 72 0 12
-34 c12 -36 26 -46 66 -46 16 0 24 5 23 18 0 9 -28 94 -62 187 l-62 170 -40 2
c-22 1 -46 0 -52 -3z m66 -146 c29 -86 29 -88 -24 -88 -30 0 -45 4 -45 13 0
15 40 137 45 137 2 0 13 -28 24 -62z"/>
<path d="M7394 4536 c-3 -7 -4 -92 -2 -187 l3 -174 35 0 35 0 3 188 2 187 -35
0 c-21 0 -38 -6 -41 -14z"/>
<path d="M4970 4209 c0 -36 2 -40 20 -34 28 9 27 -28 -2 -55 -30 -27 -14 -38
20 -13 19 14 30 34 36 67 11 62 4 76 -39 76 -34 0 -35 -1 -35 -41z"/>
<path d="M3333 3839 c-38 -24 -59 -67 -68 -141 -10 -85 11 -172 50 -214 30
-31 37 -34 93 -34 50 0 66 4 89 24 38 32 55 92 55 188 0 100 -26 162 -76 183
-49 21 -105 18 -143 -6z m124 -69 c17 -33 17 -197 0 -230 -18 -37 -70 -40 -92
-6 -14 21 -16 45 -13 131 3 93 6 109 23 121 29 21 67 14 82 -16z"/>
<path d="M3670 3838 c-44 -30 -60 -61 -60 -121 0 -40 5 -53 33 -83 39 -43 101
-56 141 -30 35 23 39 20 32 -16 -9 -48 -33 -78 -60 -78 -35 0 -56 10 -56 26 0
10 -12 14 -40 14 -32 0 -40 -4 -40 -17 2 -67 128 -109 201 -66 93 55 104 302
17 366 -16 12 -49 22 -80 25 -44 3 -59 0 -88 -20z m107 -44 c25 -7 47 -61 37
-90 -19 -52 -60 -68 -102 -38 -29 20 -31 85 -2 114 21 21 32 23 67 14z"/>
<path d="M4094 3843 c-113 -175 -144 -231 -144 -260 l0 -32 83 -3 82 -3 3 -42
c3 -43 3 -43 43 -43 l39 0 0 45 c0 39 3 45 21 45 16 0 20 5 17 28 -2 19 -8 27
-20 26 -16 -2 -18 10 -18 127 l0 129 -48 0 c-34 0 -50 -5 -58 -17z m26 -152
l0 -79 -51 -4 c-28 -1 -52 -1 -54 2 -5 7 88 160 97 160 5 0 8 -36 8 -79z"/>
<path d="M4374 3846 c-63 -27 -83 -99 -44 -149 l20 -26 -25 -25 c-20 -20 -25
-35 -25 -73 0 -83 47 -123 146 -123 45 0 64 5 90 25 59 45 68 129 19 175 l-24
23 19 25 c74 93 -55 200 -176 148z m111 -70 c25 -37 5 -76 -38 -76 -40 0 -57
15 -57 52 0 49 68 66 95 24z m-7 -152 c16 -11 22 -25 22 -53 0 -45 -14 -61
-54 -61 -40 0 -66 26 -66 66 0 34 28 64 60 64 9 0 26 -7 38 -16z"/>
<path d="M5230 3842 c-67 -33 -90 -129 -47 -193 39 -58 98 -74 159 -43 l31 16
-6 -37 c-3 -21 -14 -46 -23 -56 -23 -25 -70 -25 -86 1 -9 14 -24 20 -50 20
-49 0 -50 -20 -4 -66 30 -30 40 -34 88 -34 80 1 121 33 148 114 18 55 9 184
-16 227 -23 40 -75 69 -124 69 -19 0 -51 -8 -70 -18z m106 -50 c43 -28 41
-116 -2 -132 -37 -14 -52 -12 -74 10 -55 55 13 165 76 122z"/>
<path d="M5624 3824 c-23 -25 -39 -34 -63 -34 -26 0 -31 -4 -31 -25 0 -23 3
-25 50 -25 l50 0 0 -140 0 -140 40 0 40 0 0 200 0 200 -27 -1 c-19 0 -38 -12
-59 -35z"/>
<path d="M6154 3822 c-11 -20 -47 -77 -78 -127 -38 -60 -56 -98 -54 -115 3
-24 6 -25 86 -28 l82 -3 0 -44 0 -45 39 0 c40 0 40 0 43 43 2 35 7 43 26 45
17 3 22 10 22 33 0 17 -4 28 -9 25 -5 -4 -16 -3 -25 0 -13 5 -16 26 -16 130
l0 124 -47 0 c-45 0 -49 -3 -69 -38z m36 -134 l0 -83 -50 3 c-27 2 -50 6 -50
10 0 3 14 28 32 56 17 28 37 61 45 74 7 12 16 22 18 22 3 0 5 -37 5 -82z"/>
<path d="M6450 3837 c-59 -39 -75 -79 -75 -187 1 -104 13 -142 61 -179 38 -30
131 -29 169 1 80 62 68 197 -20 234 -43 18 -63 18 -99 -1 -36 -19 -36 -19 -36
5 0 70 81 120 112 70 9 -14 24 -20 50 -20 42 0 47 12 22 49 -36 51 -129 66
-184 28z m104 -198 c48 -38 26 -129 -32 -129 -33 0 -45 8 -61 37 -17 34 -13
62 14 88 29 30 45 31 79 4z"/>
<path d="M6795 3848 c-11 -6 -30 -20 -42 -31 -31 -28 -32 -94 -1 -126 20 -22
20 -24 4 -33 -31 -17 -48 -73 -36 -118 18 -66 55 -90 141 -90 81 0 118 27 140
103 9 33 -7 83 -34 106 -15 12 -15 15 3 38 24 31 26 80 4 112 -31 44 -131 66
-179 39z m96 -58 c10 -6 19 -21 19 -35 0 -44 -10 -55 -51 -55 -32 0 -42 5 -51
25 -9 19 -8 29 6 50 17 26 45 32 77 15z m7 -166 c15 -10 22 -25 22 -49 0 -41
-22 -65 -60 -65 -38 0 -60 24 -60 65 0 35 28 65 60 65 9 0 26 -7 38 -16z"/>
<path d="M4810 3820 l0 -30 105 0 c58 0 105 -4 105 -9 0 -5 -8 -15 -17 -22
-50 -41 -112 -169 -128 -261 l-6 -38 44 0 44 0 6 54 c7 71 41 147 99 224 27
35 48 74 48 88 l0 24 -150 0 -150 0 0 -30z"/>
<path d="M1527 3542 c-10 -10 -17 -24 -17 -30 0 -10 133 -150 460 -484 36 -36
164 -168 285 -293 121 -125 297 -304 390 -400 112 -114 178 -189 194 -221 46
-91 108 -183 167 -247 32 -34 106 -119 164 -187 125 -147 178 -201 239 -243
26 -17 51 -36 56 -43 10 -12 81 -60 191 -130 67 -43 162 -124 269 -229 96 -95
128 -117 167 -113 30 3 33 6 36 39 3 38 -29 86 -128 188 -113 116 -169 190
-219 290 -28 57 -75 137 -104 177 -29 41 -64 91 -79 111 -30 43 -248 259 -323
320 -27 22 -68 57 -89 77 -22 20 -43 36 -47 36 -5 0 -36 20 -71 43 -35 24 -79
52 -98 63 -19 10 -39 24 -45 30 -5 6 -62 56 -125 111 -63 55 -173 158 -245
229 -71 71 -140 136 -153 145 -13 9 -62 54 -111 100 -48 46 -134 127 -191 179
-56 52 -142 132 -189 176 -287 271 -345 324 -356 324 -6 0 -19 -8 -28 -18z"/>
<path d="M8648 3482 c-46 -44 -108 -102 -138 -129 -30 -26 -71 -65 -92 -85
-20 -21 -60 -58 -90 -84 -51 -45 -148 -136 -323 -303 -44 -42 -96 -88 -115
-103 -19 -14 -44 -35 -55 -47 -37 -40 -307 -295 -350 -332 -11 -9 -45 -39 -75
-66 -30 -28 -66 -56 -80 -63 -45 -23 -231 -149 -263 -179 -18 -15 -57 -50 -87
-77 -124 -110 -270 -260 -316 -326 -27 -38 -59 -82 -70 -97 -12 -14 -49 -79
-82 -144 -58 -114 -102 -173 -228 -307 -105 -112 -124 -139 -124 -181 0 -38 1
-39 36 -39 30 0 50 11 106 56 38 31 72 62 76 69 22 37 195 179 307 252 71 47
137 93 146 102 9 9 49 41 89 71 39 30 82 69 94 86 12 18 48 61 81 97 33 36 71
78 84 94 13 15 58 67 100 114 73 83 138 176 172 249 18 40 84 113 249 279 108
109 388 396 870 891 113 116 206 217 208 224 1 6 -9 22 -22 35 l-25 24 -83
-81z"/>
<path d="M4929 2911 l-23 -19 33 -28 c37 -31 44 -37 89 -78 29 -27 34 -28 57
-16 14 7 25 19 25 25 0 11 -141 135 -153 135 -3 0 -15 -8 -28 -19z"/>
<path d="M5243 2857 l-72 -62 24 -24 24 -24 73 63 c40 35 77 68 82 72 12 9
-22 37 -44 37 -8 0 -47 -28 -87 -62z"/>
<path d="M4126 2503 c-40 -20 -46 -27 -34 -34 19 -10 183 -254 202 -299 l12
-30 34 22 c59 40 59 49 8 125 -25 37 -71 107 -102 156 -31 48 -59 87 -64 87
-4 -1 -29 -12 -56 -27z"/>
<path d="M6038 2434 c-29 -47 -72 -114 -95 -149 -24 -35 -43 -71 -43 -78 0 -8
16 -27 36 -42 39 -30 35 -32 76 35 25 43 151 233 158 240 31 31 31 38 -5 59
-59 34 -68 29 -127 -65z"/>
<path d="M6123 2213 c-18 -9 -33 -19 -33 -22 1 -10 212 -173 230 -178 20 -5
80 22 80 36 0 11 -235 184 -244 180 0 0 -16 -8 -33 -16z"/>
<path d="M3190 9855 c-14 -8 -20 -14 -15 -14 6 0 21 6 35 14 14 8 21 14 15 14
-5 0 -21 -6 -35 -14z"/>
<path d="M3130 9830 c-8 -5 -10 -10 -5 -10 6 0 17 5 25 10 8 5 11 10 5 10 -5
0 -17 -5 -25 -10z"/>
<path d="M3040 9790 c-8 -5 -10 -10 -5 -10 6 0 17 5 25 10 8 5 11 10 5 10 -5
0 -17 -5 -25 -10z"/>
<path d="M7230 9790 c8 -5 20 -10 25 -10 6 0 3 5 -5 10 -8 5 -19 10 -25 10 -5
0 -3 -5 5 -10z"/>
<path d="M7311 9756 c2 -2 15 -9 29 -15 24 -11 24 -11 6 3 -16 13 -49 24 -35
12z"/>
<path d="M7370 9726 c0 -2 7 -7 16 -10 8 -3 12 -2 9 4 -6 10 -25 14 -25 6z"/>
<path d="M2840 9695 c-25 -13 -41 -24 -37 -25 11 0 87 39 87 45 0 7 0 7 -50
-20z"/>
<path d="M7451 9686 c10 -9 69 -36 69 -32 0 6 -55 36 -66 36 -4 0 -5 -2 -3 -4z"/>
<path d="M2694 9614 c-18 -14 -18 -15 4 -4 12 6 22 13 22 15 0 8 -5 6 -26 -11z"/>
<path d="M2645 9590 c-3 -6 1 -7 9 -4 18 7 21 14 7 14 -6 0 -13 -4 -16 -10z"/>
<path d="M2604 9564 c-18 -14 -18 -15 4 -4 12 6 22 13 22 15 0 8 -5 6 -26 -11z"/>
<path d="M2534 9524 c-18 -14 -18 -15 4 -4 12 6 22 13 22 15 0 8 -5 6 -26 -11z"/>
<path d="M2454 9474 c-18 -14 -18 -15 4 -4 12 6 22 13 22 15 0 8 -5 6 -26 -11z"/>
<path d="M7860 9456 c0 -3 9 -10 20 -16 11 -6 20 -8 20 -6 0 3 -9 10 -20 16
-11 6 -20 8 -20 6z"/>
<path d="M2314 9384 c-18 -14 -18 -15 4 -4 12 6 22 13 22 15 0 8 -5 6 -26 -11z"/>
<path d="M2239 9333 c-13 -16 -12 -17 4 -4 16 13 21 21 13 21 -2 0 -10 -8 -17
-17z"/>
<path d="M2169 9283 c-13 -16 -12 -17 4 -4 9 7 17 15 17 17 0 8 -8 3 -21 -13z"/>
<path d="M8130 9276 c0 -2 8 -10 18 -17 15 -13 16 -12 3 4 -13 16 -21 21 -21
13z"/>
<path d="M2129 9253 c-13 -16 -12 -17 4 -4 16 13 21 21 13 21 -2 0 -10 -8 -17
-17z"/>
<path d="M2089 9223 c-13 -16 -12 -17 4 -4 9 7 17 15 17 17 0 8 -8 3 -21 -13z"/>
<path d="M8220 9206 c0 -2 8 -10 18 -17 15 -13 16 -12 3 4 -13 16 -21 21 -21
13z"/>
<path d="M1985 9144 l-30 -26 33 22 c17 12 32 23 32 26 0 7 -4 5 -35 -22z"/>
<path d="M8270 9167 c0 -3 17 -17 37 -33 20 -15 33 -23 29 -16 -8 13 -66 56
-66 49z"/>
<path d="M1924 9098 l-19 -23 23 19 c12 11 22 21 22 23 0 8 -8 2 -26 -19z"/>
<path d="M8350 9106 c0 -2 8 -10 18 -17 15 -13 16 -12 3 4 -13 16 -21 21 -21
13z"/>
<path d="M1854 9038 l-19 -23 23 19 c12 11 22 21 22 23 0 8 -8 2 -26 -19z"/>
<path d="M8425 9040 c10 -11 20 -20 23 -20 3 0 -3 9 -13 20 -10 11 -20 20 -23
20 -3 0 3 -9 13 -20z"/>
<path d="M8490 8985 c13 -14 26 -25 28 -25 3 0 -5 11 -18 25 -13 14 -26 25
-28 25 -3 0 5 -11 18 -25z"/>
<path d="M1784 8978 l-19 -23 23 19 c21 18 27 26 19 26 -2 0 -12 -10 -23 -22z"/>
<path d="M8605 8880 c21 -22 41 -40 44 -40 3 0 -13 18 -34 40 -21 22 -41 40
-44 40 -3 0 13 -18 34 -40z"/>
<path d="M1684 8888 l-19 -23 23 19 c21 18 27 26 19 26 -2 0 -12 -10 -23 -22z"/>
<path d="M8865 8620 c33 -36 62 -64 65 -62 2 1 -25 31 -60 65 l-64 62 59 -65z"/>
<path d="M1405 8610 l-49 -55 54 52 c30 29 52 54 50 56 -3 1 -27 -22 -55 -53z"/>
<path d="M8950 8526 c0 -2 8 -10 18 -17 15 -13 16 -12 3 4 -13 16 -21 21 -21
13z"/>
<path d="M1304 8498 l-19 -23 23 19 c21 18 27 26 19 26 -2 0 -12 -10 -23 -22z"/>
<path d="M9020 8446 c0 -2 8 -10 18 -17 15 -13 16 -12 3 4 -13 16 -21 21 -21
13z"/>
<path d="M1239 8423 c-13 -16 -12 -17 4 -4 16 13 21 21 13 21 -2 0 -10 -8 -17
-17z"/>
<path d="M1194 8368 l-19 -23 23 19 c21 18 27 26 19 26 -2 0 -12 -10 -23 -22z"/>
<path d="M9110 8336 c0 -2 8 -10 18 -17 15 -13 16 -12 3 4 -13 16 -21 21 -21
13z"/>
<path d="M1115 8269 c-4 -6 -5 -12 -2 -15 2 -3 7 2 10 11 7 17 1 20 -8 4z"/>
<path d="M1049 8183 c-13 -16 -12 -17 4 -4 16 13 21 21 13 21 -2 0 -10 -8 -17
-17z"/>
<path d="M9240 8166 c0 -2 8 -10 18 -17 15 -13 16 -12 3 4 -13 16 -21 21 -21
13z"/>
<path d="M9270 8126 c0 -2 8 -10 18 -17 15 -13 16 -12 3 4 -13 16 -21 21 -21
13z"/>
<path d="M989 8103 c-13 -16 -12 -17 4 -4 16 13 21 21 13 21 -2 0 -10 -8 -17
-17z"/>
<path d="M9300 8086 c0 -2 8 -10 18 -17 15 -13 16 -12 3 4 -13 16 -21 21 -21
13z"/>
<path d="M956 8055 c-9 -14 -23 -37 -32 -52 l-16 -28 20 24 c24 29 55 81 49
81 -3 0 -12 -11 -21 -25z"/>
<path d="M9360 8000 c6 -11 13 -20 16 -20 2 0 0 9 -6 20 -6 11 -13 20 -16 20
-2 0 0 -9 6 -20z"/>
<path d="M885 7949 c-4 -6 -5 -12 -2 -15 2 -3 7 2 10 11 7 17 1 20 -8 4z"/>
<path d="M760 7750 c-6 -11 -8 -20 -6 -20 3 0 10 9 16 20 6 11 8 20 6 20 -3 0
-10 -9 -16 -20z"/>
<path d="M730 7700 c-6 -11 -8 -20 -6 -20 3 0 10 9 16 20 6 11 8 20 6 20 -3 0
-10 -9 -16 -20z"/>
<path d="M9560 7680 c6 -11 13 -20 16 -20 2 0 0 9 -6 20 -6 11 -13 20 -16 20
-2 0 0 -9 6 -20z"/>
<path d="M680 7610 c-6 -11 -8 -20 -6 -20 3 0 10 9 16 20 6 11 8 20 6 20 -3 0
-10 -9 -16 -20z"/>
<path d="M9615 7580 c9 -16 18 -30 21 -30 2 0 -2 14 -11 30 -9 17 -18 30 -21
30 -2 0 2 -13 11 -30z"/>
<path d="M9646 7527 c3 -10 9 -15 12 -12 3 3 0 11 -7 18 -10 9 -11 8 -5 -6z"/>
<path d="M9675 7470 c9 -16 18 -30 21 -30 2 0 -2 14 -11 30 -9 17 -18 30 -21
30 -2 0 2 -13 11 -30z"/>
<path d="M596 7453 c-6 -14 -5 -15 5 -6 7 7 10 15 7 18 -3 3 -9 -2 -12 -12z"/>
<path d="M576 7413 c-6 -14 -5 -15 5 -6 7 7 10 15 7 18 -3 3 -9 -2 -12 -12z"/>
<path d="M9701 7425 c0 -5 8 -26 19 -45 11 -19 19 -30 19 -25 0 6 -8 26 -19
45 -11 19 -19 31 -19 25z"/>
<path d="M522 7305 c-17 -37 -14 -45 4 -12 9 16 14 31 11 33 -2 2 -9 -7 -15
-21z"/>
<path d="M9771 7275 c0 -5 6 -21 14 -35 8 -14 14 -20 14 -15 0 6 -6 21 -14 35
-8 14 -14 21 -14 15z"/>
<path d="M476 7205 c-9 -26 -7 -32 5 -12 6 10 9 21 6 23 -2 3 -7 -2 -11 -11z"/>
<path d="M9811 7185 c0 -5 6 -21 14 -35 8 -14 14 -20 14 -15 0 6 -6 21 -14 35
-8 14 -14 21 -14 15z"/>
<path d="M9841 7115 c0 -5 6 -21 14 -35 8 -14 14 -20 14 -15 0 6 -6 21 -14 35
-8 14 -14 21 -14 15z"/>
<path d="M9890 6995 c0 -5 5 -17 10 -25 5 -8 10 -10 10 -5 0 6 -5 17 -10 25
-5 8 -10 11 -10 5z"/>
<path d="M366 6935 c-9 -26 -7 -32 5 -12 6 10 9 21 6 23 -2 3 -7 -2 -11 -11z"/>
<path d="M306 6765 c-3 -9 -6 -22 -5 -28 0 -7 5 -1 10 12 5 13 8 26 5 28 -2 2
-6 -3 -10 -12z"/>
<path d="M256 6604 c-4 -14 -5 -28 -3 -31 3 -2 8 8 11 23 4 14 5 28 3 31 -3 2
-8 -8 -11 -23z"/>
<path d="M10021 6620 c0 -8 4 -24 9 -35 5 -13 9 -14 9 -5 0 8 -4 24 -9 35 -5
13 -9 14 -9 5z"/>
<path d="M10041 6544 c0 -11 3 -14 6 -6 3 7 2 16 -1 19 -3 4 -6 -2 -5 -13z"/>
<path d="M231 6514 c0 -11 3 -14 6 -6 3 7 2 16 -1 19 -3 4 -6 -2 -5 -13z"/>
<path d="M10061 6474 c0 -11 3 -14 6 -6 3 7 2 16 -1 19 -3 4 -6 -2 -5 -13z"/>
<path d="M10071 6434 c0 -11 3 -14 6 -6 3 7 2 16 -1 19 -3 4 -6 -2 -5 -13z"/>
<path d="M201 6404 c0 -11 3 -14 6 -6 3 7 2 16 -1 19 -3 4 -6 -2 -5 -13z"/>
<path d="M10081 6394 c0 -11 3 -14 6 -6 3 7 2 16 -1 19 -3 4 -6 -2 -5 -13z"/>
<path d="M191 6364 c0 -11 3 -14 6 -6 3 7 2 16 -1 19 -3 4 -6 -2 -5 -13z"/>
<path d="M10091 6354 c0 -11 3 -14 6 -6 3 7 2 16 -1 19 -3 4 -6 -2 -5 -13z"/>
<path d="M181 6324 c0 -11 3 -14 6 -6 3 7 2 16 -1 19 -3 4 -6 -2 -5 -13z"/>
<path d="M10101 6314 c0 -11 3 -14 6 -6 3 7 2 16 -1 19 -3 4 -6 -2 -5 -13z"/>
<path d="M171 6274 c0 -11 3 -14 6 -6 3 7 2 16 -1 19 -3 4 -6 -2 -5 -13z"/>
<path d="M161 6234 c0 -11 3 -14 6 -6 3 7 2 16 -1 19 -3 4 -6 -2 -5 -13z"/>
<path d="M10121 6224 c0 -11 3 -14 6 -6 3 7 2 16 -1 19 -3 4 -6 -2 -5 -13z"/>
<path d="M151 6184 c0 -11 3 -14 6 -6 3 7 2 16 -1 19 -3 4 -6 -2 -5 -13z"/>
<path d="M10132 6180 c0 -14 2 -19 5 -12 2 6 2 18 0 25 -3 6 -5 1 -5 -13z"/>
<path d="M141 6134 c0 -11 3 -14 6 -6 3 7 2 16 -1 19 -3 4 -6 -2 -5 -13z"/>
<path d="M132 6080 c0 -14 2 -19 5 -12 2 6 2 18 0 25 -3 6 -5 1 -5 -13z"/>
<path d="M10152 6080 c0 -14 2 -19 5 -12 2 6 2 18 0 25 -3 6 -5 1 -5 -13z"/>
<path d="M122 6030 c0 -14 2 -19 5 -12 2 6 2 18 0 25 -3 6 -5 1 -5 -13z"/>
<path d="M10162 6020 c0 -14 2 -19 5 -12 2 6 2 18 0 25 -3 6 -5 1 -5 -13z"/>
<path d="M112 5970 c0 -14 2 -19 5 -12 2 6 2 18 0 25 -3 6 -5 1 -5 -13z"/>
<path d="M10172 5960 c0 -14 2 -19 5 -12 2 6 2 18 0 25 -3 6 -5 1 -5 -13z"/>
<path d="M102 5905 c0 -16 2 -22 5 -12 2 9 2 23 0 30 -3 6 -5 -1 -5 -18z"/>
<path d="M10182 5900 c0 -14 2 -19 5 -12 2 6 2 18 0 25 -3 6 -5 1 -5 -13z"/>
<path d="M92 5830 c0 -19 2 -27 5 -17 2 9 2 25 0 35 -3 9 -5 1 -5 -18z"/>
<path d="M10192 5825 c0 -16 2 -22 5 -12 2 9 2 23 0 30 -3 6 -5 -1 -5 -18z"/>
<path d="M82 5755 c0 -16 2 -22 5 -12 2 9 2 23 0 30 -3 6 -5 -1 -5 -18z"/>
<path d="M10202 5750 c0 -19 2 -27 5 -17 2 9 2 25 0 35 -3 9 -5 1 -5 -18z"/>
<path d="M73 5665 c0 -22 2 -30 4 -17 2 12 2 30 0 40 -3 9 -5 -1 -4 -23z"/>
<path d="M10213 5655 c0 -22 2 -30 4 -17 2 12 2 30 0 40 -3 9 -5 -1 -4 -23z"/>
<path d="M63 5555 c0 -22 2 -30 4 -17 2 12 2 30 0 40 -3 9 -5 -1 -4 -23z"/>
<path d="M10223 5545 c0 -27 2 -38 4 -22 2 15 2 37 0 50 -2 12 -4 0 -4 -28z"/>
<path d="M53 5390 c0 -41 2 -58 4 -37 2 20 2 54 0 75 -2 20 -4 3 -4 -38z"/>
<path d="M10233 5370 c0 -47 2 -66 4 -42 2 23 2 61 0 85 -2 23 -4 4 -4 -43z"/>
<path d="M10233 4920 c0 -47 2 -66 4 -42 2 23 2 61 0 85 -2 23 -4 4 -4 -43z"/>
<path d="M53 4890 c0 -41 2 -58 4 -37 2 20 2 54 0 75 -2 20 -4 3 -4 -38z"/>
<path d="M10223 4745 c0 -27 2 -38 4 -22 2 15 2 37 0 50 -2 12 -4 0 -4 -28z"/>
<path d="M63 4730 c0 -25 2 -35 4 -22 2 12 2 32 0 45 -2 12 -4 2 -4 -23z"/>
<path d="M73 4625 c0 -22 2 -30 4 -17 2 12 2 30 0 40 -3 9 -5 -1 -4 -23z"/>
<path d="M10212 4630 c0 -19 2 -27 5 -17 2 9 2 25 0 35 -3 9 -5 1 -5 -18z"/>
<path d="M82 4530 c0 -19 2 -27 5 -17 2 9 2 25 0 35 -3 9 -5 1 -5 -18z"/>
<path d="M10202 4535 c0 -16 2 -22 5 -12 2 9 2 23 0 30 -3 6 -5 -1 -5 -18z"/>
<path d="M10192 4465 c0 -16 2 -22 5 -12 2 9 2 23 0 30 -3 6 -5 -1 -5 -18z"/>
<path d="M92 4450 c0 -19 2 -27 5 -17 2 9 2 25 0 35 -3 9 -5 1 -5 -18z"/>
<path d="M102 4385 c0 -16 2 -22 5 -12 2 9 2 23 0 30 -3 6 -5 -1 -5 -18z"/>
<path d="M10182 4385 c0 -16 2 -22 5 -12 2 9 2 23 0 30 -3 6 -5 -1 -5 -18z"/>
<path d="M112 4320 c0 -14 2 -19 5 -12 2 6 2 18 0 25 -3 6 -5 1 -5 -13z"/>
<path d="M10172 4320 c0 -14 2 -19 5 -12 2 6 2 18 0 25 -3 6 -5 1 -5 -13z"/>
<path d="M122 4260 c0 -14 2 -19 5 -12 2 6 2 18 0 25 -3 6 -5 1 -5 -13z"/>
<path d="M10162 4260 c0 -14 2 -19 5 -12 2 6 2 18 0 25 -3 6 -5 1 -5 -13z"/>
<path d="M10152 4210 c0 -14 2 -19 5 -12 2 6 2 18 0 25 -3 6 -5 1 -5 -13z"/>
<path d="M131 4204 c0 -11 3 -14 6 -6 3 7 2 16 -1 19 -3 4 -6 -2 -5 -13z"/>
<path d="M141 4154 c0 -11 3 -14 6 -6 3 7 2 16 -1 19 -3 4 -6 -2 -5 -13z"/>
<path d="M10141 4154 c0 -11 3 -14 6 -6 3 7 2 16 -1 19 -3 4 -6 -2 -5 -13z"/>
<path d="M151 4104 c0 -11 3 -14 6 -6 3 7 2 16 -1 19 -3 4 -6 -2 -5 -13z"/>
<path d="M10131 4104 c0 -11 3 -14 6 -6 3 7 2 16 -1 19 -3 4 -6 -2 -5 -13z"/>
<path d="M10122 4060 c0 -14 2 -19 5 -12 2 6 2 18 0 25 -3 6 -5 1 -5 -13z"/>
<path d="M161 4054 c0 -11 3 -14 6 -6 3 7 2 16 -1 19 -3 4 -6 -2 -5 -13z"/>
<path d="M171 4014 c0 -11 3 -14 6 -6 3 7 2 16 -1 19 -3 4 -6 -2 -5 -13z"/>
<path d="M10111 4014 c0 -11 3 -14 6 -6 3 7 2 16 -1 19 -3 4 -6 -2 -5 -13z"/>
<path d="M10101 3974 c0 -11 3 -14 6 -6 3 7 2 16 -1 19 -3 4 -6 -2 -5 -13z"/>
<path d="M191 3924 c0 -11 3 -14 6 -6 3 7 2 16 -1 19 -3 4 -6 -2 -5 -13z"/>
<path d="M10091 3924 c0 -11 3 -14 6 -6 3 7 2 16 -1 19 -3 4 -6 -2 -5 -13z"/>
<path d="M201 3884 c0 -11 3 -14 6 -6 3 7 2 16 -1 19 -3 4 -6 -2 -5 -13z"/>
<path d="M211 3844 c0 -11 3 -14 6 -6 3 7 2 16 -1 19 -3 4 -6 -2 -5 -13z"/>
<path d="M10051 3774 c0 -11 3 -14 6 -6 3 7 2 16 -1 19 -3 4 -6 -2 -5 -13z"/>
<path d="M241 3740 c0 -8 4 -24 9 -35 5 -13 9 -14 9 -5 0 8 -4 24 -9 35 -5 13
-9 14 -9 5z"/>
<path d="M10036 3724 c-4 -14 -5 -28 -3 -31 3 -2 8 8 11 23 4 14 5 28 3 31 -3
2 -8 -8 -11 -23z"/>
<path d="M292 3580 c0 -8 8 -37 18 -65 10 -27 18 -43 18 -35 0 8 -8 38 -18 65
-10 28 -18 43 -18 35z"/>
<path d="M9977 3538 c-9 -29 -15 -54 -13 -56 2 -2 12 20 21 48 9 28 15 53 13
55 -2 3 -12 -19 -21 -47z"/>
<path d="M330 3455 c0 -5 5 -17 10 -25 5 -8 10 -10 10 -5 0 6 -5 17 -10 25 -5
8 -10 11 -10 5z"/>
<path d="M9916 3365 c-9 -26 -7 -32 5 -12 6 10 9 21 6 23 -2 3 -7 -2 -11 -11z"/>
<path d="M370 3345 c0 -5 5 -17 10 -25 5 -8 10 -10 10 -5 0 6 -5 17 -10 25 -5
8 -10 11 -10 5z"/>
<path d="M390 3295 c0 -5 5 -17 10 -25 5 -8 10 -10 10 -5 0 6 -5 17 -10 25 -5
8 -10 11 -10 5z"/>
<path d="M9842 3175 c-17 -37 -14 -45 4 -12 9 16 14 31 11 33 -2 2 -9 -7 -15
-21z"/>
<path d="M9806 3095 c-9 -26 -7 -32 5 -12 6 10 9 21 6 23 -2 3 -7 -2 -11 -11z"/>
<path d="M496 3047 c3 -10 9 -15 12 -12 3 3 0 11 -7 18 -10 9 -11 8 -5 -6z"/>
<path d="M9772 3015 c-17 -37 -14 -45 4 -12 9 16 14 31 11 33 -2 2 -9 -7 -15
-21z"/>
<path d="M510 3011 c0 -6 4 -13 10 -16 6 -3 7 1 4 9 -7 18 -14 21 -14 7z"/>
<path d="M9705 2879 c-4 -6 -5 -12 -2 -15 2 -3 7 2 10 11 7 17 1 20 -8 4z"/>
<path d="M700 2645 c0 -5 9 -23 20 -40 26 -39 26 -25 0 17 -11 18 -20 29 -20
23z"/>
<path d="M9490 2490 c-6 -11 -8 -20 -6 -20 3 0 10 9 16 20 6 11 8 20 6 20 -3
0 -10 -9 -16 -20z"/>
<path d="M890 2330 c6 -11 13 -20 16 -20 2 0 0 9 -6 20 -6 11 -13 20 -16 20
-2 0 0 -9 6 -20z"/>
<path d="M9370 2300 c-12 -16 -19 -30 -16 -30 2 0 14 14 26 30 12 17 19 30 16
30 -2 0 -14 -13 -26 -30z"/>
<path d="M9322 2233 c-26 -38 -34 -53 -29 -53 2 0 16 18 31 40 29 45 28 56 -2
13z"/>
<path d="M980 2196 c0 -2 8 -10 18 -17 15 -13 16 -12 3 4 -13 16 -21 21 -21
13z"/>
<path d="M1010 2156 c0 -2 8 -10 18 -17 15 -13 16 -12 3 4 -13 16 -21 21 -21
13z"/>
<path d="M1060 2090 c12 -16 24 -30 26 -30 3 0 -4 14 -16 30 -12 17 -24 30
-26 30 -3 0 4 -13 16 -30z"/>
<path d="M9209 2073 c-13 -16 -12 -17 4 -4 16 13 21 21 13 21 -2 0 -10 -8 -17
-17z"/>
<path d="M1146 1978 c10 -14 21 -24 23 -22 3 3 -6 15 -18 27 l-24 22 19 -27z"/>
<path d="M9099 1933 c-13 -16 -12 -17 4 -4 16 13 21 21 13 21 -2 0 -10 -8 -17
-17z"/>
<path d="M1210 1903 c0 -5 10 -18 23 -29 l22 -19 -20 25 c-11 14 -21 27 -22
29 -2 2 -3 0 -3 -6z"/>
<path d="M9059 1883 c-13 -16 -12 -17 4 -4 16 13 21 21 13 21 -2 0 -10 -8 -17
-17z"/>
<path d="M8999 1813 l-24 -28 28 24 c15 14 27 26 27 28 0 8 -8 1 -31 -24z"/>
<path d="M1370 1718 c41 -45 50 -53 50 -45 0 2 -21 23 -47 47 l-48 45 45 -47z"/>
<path d="M8915 1718 l-40 -43 43 40 c23 21 42 40 42 42 0 8 -9 0 -45 -39z"/>
<path d="M8769 1563 l-24 -28 28 24 c15 14 27 26 27 28 0 8 -8 1 -31 -24z"/>
<path d="M1575 1500 c44 -44 82 -80 85 -80 2 0 -31 36 -75 80 -44 44 -82 80
-85 80 -2 0 31 -36 75 -80z"/>
<path d="M8719 1513 c-13 -16 -12 -17 4 -4 16 13 21 21 13 21 -2 0 -10 -8 -17
-17z"/>
<path d="M8579 1383 l-24 -28 28 24 c15 14 27 26 27 28 0 8 -8 1 -31 -24z"/>
<path d="M1725 1360 c10 -11 20 -20 23 -20 3 0 -3 9 -13 20 -10 11 -20 20 -23
20 -3 0 3 -9 13 -20z"/>
<path d="M1790 1307 c0 -2 15 -16 33 -33 l32 -29 -29 33 c-28 30 -36 37 -36
29z"/>
<path d="M8469 1283 c-13 -16 -12 -17 4 -4 9 7 17 15 17 17 0 8 -8 3 -21 -13z"/>
<path d="M8409 1233 c-13 -16 -12 -17 4 -4 16 13 21 21 13 21 -2 0 -10 -8 -17
-17z"/>
<path d="M1885 1220 c10 -11 20 -20 23 -20 3 0 -3 9 -13 20 -10 11 -20 20 -23
20 -3 0 3 -9 13 -20z"/>
<path d="M8354 1188 l-19 -23 23 19 c12 11 22 21 22 23 0 8 -8 2 -26 -19z"/>
<path d="M1930 1187 c0 -3 17 -17 37 -33 20 -15 33 -23 29 -16 -8 13 -66 56
-66 49z"/>
<path d="M8179 1053 c-13 -16 -12 -17 4 -4 16 13 21 21 13 21 -2 0 -10 -8 -17
-17z"/>
<path d="M2100 1056 c0 -2 8 -10 18 -17 15 -13 16 -12 3 4 -13 16 -21 21 -21
13z"/>
<path d="M2140 1026 c0 -2 8 -10 18 -17 15 -13 16 -12 3 4 -13 16 -21 21 -21
13z"/>
<path d="M8129 1013 c-13 -16 -12 -17 4 -4 16 13 21 21 13 21 -2 0 -10 -8 -17
-17z"/>
<path d="M8050 959 c-22 -18 -22 -19 -3 -10 12 6 25 16 28 21 9 15 3 12 -25
-11z"/>
<path d="M2270 936 c0 -2 8 -10 18 -17 15 -13 16 -12 3 4 -13 16 -21 21 -21
13z"/>
<path d="M7790 790 c-9 -6 -10 -10 -3 -10 6 0 15 5 18 10 8 12 4 12 -15 0z"/>
<path d="M7694 734 c-18 -14 -18 -15 4 -4 12 6 22 13 22 15 0 8 -5 6 -26 -11z"/>
<path d="M2670 686 c0 -3 9 -10 20 -16 11 -6 20 -8 20 -6 0 3 -9 10 -20 16
-11 6 -20 8 -20 6z"/>
<path d="M7554 654 c-18 -14 -18 -15 4 -4 12 6 22 13 22 15 0 8 -5 6 -26 -11z"/>
<path d="M2787 619 c7 -7 15 -10 18 -7 3 3 -2 9 -12 12 -14 6 -15 5 -6 -5z"/>
<path d="M2827 599 c7 -7 15 -10 18 -7 3 3 -2 9 -12 12 -14 6 -15 5 -6 -5z"/>
<path d="M2894 566 c11 -9 24 -16 30 -16 12 0 7 5 -24 19 -24 11 -24 11 -6 -3z"/>
<path d="M7310 535 c-14 -8 -20 -14 -15 -14 6 0 21 6 35 14 14 8 21 14 15 14
-5 0 -21 -6 -35 -14z"/>
<path d="M7260 510 c-9 -6 -10 -10 -3 -10 6 0 15 5 18 10 8 12 4 12 -15 0z"/>
<path d="M3037 499 c7 -7 15 -10 18 -7 3 3 -2 9 -12 12 -14 6 -15 5 -6 -5z"/>
<path d="M7190 480 c-8 -5 -10 -10 -5 -10 6 0 17 5 25 10 8 5 11 10 5 10 -5 0
-17 -5 -25 -10z"/>
<path d="M3100 470 c8 -5 20 -10 25 -10 6 0 3 5 -5 10 -8 5 -19 10 -25 10 -5
0 -3 -5 5 -10z"/>
<path d="M7110 445 c-14 -8 -20 -14 -15 -14 6 0 21 6 35 14 14 8 21 14 15 14
-5 0 -21 -6 -35 -14z"/>
<path d="M3220 420 c8 -5 20 -10 25 -10 6 0 3 5 -5 10 -8 5 -19 10 -25 10 -5
0 -3 -5 5 -10z"/>
<path d="M7030 410 c-9 -6 -10 -10 -3 -10 6 0 15 5 18 10 8 12 4 12 -15 0z"/>
<path d="M3320 382 c8 -5 26 -13 40 -16 17 -5 20 -4 10 2 -8 5 -26 13 -40 16
-17 5 -20 4 -10 -2z"/>
<path d="M6950 380 c-8 -5 -10 -10 -5 -10 6 0 17 5 25 10 8 5 11 10 5 10 -5 0
-17 -5 -25 -10z"/>
<path d="M3400 352 c8 -5 26 -13 40 -16 17 -5 20 -4 10 2 -8 5 -26 13 -40 16
-17 5 -20 4 -10 -2z"/>
<path d="M6855 345 c-25 -12 -26 -14 -5 -9 28 7 60 23 45 23 -5 0 -23 -6 -40
-14z"/>
<path d="M6625 270 c-13 -5 -14 -9 -5 -9 8 0 24 4 35 9 13 5 14 9 5 9 -8 0
-24 -4 -35 -9z"/>
<path d="M3688 253 c7 -3 16 -2 19 1 4 3 -2 6 -13 5 -11 0 -14 -3 -6 -6z"/>
<path d="M6548 243 c7 -3 16 -2 19 1 4 3 -2 6 -13 5 -11 0 -14 -3 -6 -6z"/>
<path d="M3758 233 c7 -3 16 -2 19 1 4 3 -2 6 -13 5 -11 0 -14 -3 -6 -6z"/>
<path d="M6485 230 c-13 -5 -14 -9 -5 -9 8 0 24 4 35 9 13 5 14 9 5 9 -8 0
-24 -4 -35 -9z"/>
<path d="M3798 223 c7 -3 16 -2 19 1 4 3 -2 6 -13 5 -11 0 -14 -3 -6 -6z"/>
<path d="M3838 213 c7 -3 16 -2 19 1 4 3 -2 6 -13 5 -11 0 -14 -3 -6 -6z"/>
<path d="M6438 213 c7 -3 16 -2 19 1 4 3 -2 6 -13 5 -11 0 -14 -3 -6 -6z"/>
<path d="M3878 203 c7 -3 16 -2 19 1 4 3 -2 6 -13 5 -11 0 -14 -3 -6 -6z"/>
<path d="M6398 203 c7 -3 16 -2 19 1 4 3 -2 6 -13 5 -11 0 -14 -3 -6 -6z"/>
<path d="M3918 193 c7 -3 16 -2 19 1 4 3 -2 6 -13 5 -11 0 -14 -3 -6 -6z"/>
<path d="M6358 193 c7 -3 16 -2 19 1 4 3 -2 6 -13 5 -11 0 -14 -3 -6 -6z"/>
<path d="M3958 183 c7 -3 16 -2 19 1 4 3 -2 6 -13 5 -11 0 -14 -3 -6 -6z"/>
<path d="M6318 183 c7 -3 16 -2 19 1 4 3 -2 6 -13 5 -11 0 -14 -3 -6 -6z"/>
<path d="M3998 173 c7 -3 16 -2 19 1 4 3 -2 6 -13 5 -11 0 -14 -3 -6 -6z"/>
<path d="M6278 173 c7 -3 16 -2 19 1 4 3 -2 6 -13 5 -11 0 -14 -3 -6 -6z"/>
<path d="M4048 163 c7 -3 16 -2 19 1 4 3 -2 6 -13 5 -11 0 -14 -3 -6 -6z"/>
<path d="M6228 163 c6 -2 18 -2 25 0 6 3 1 5 -13 5 -14 0 -19 -2 -12 -5z"/>
<path d="M4088 153 c7 -3 16 -2 19 1 4 3 -2 6 -13 5 -11 0 -14 -3 -6 -6z"/>
<path d="M6188 153 c7 -3 16 -2 19 1 4 3 -2 6 -13 5 -11 0 -14 -3 -6 -6z"/>
<path d="M4138 143 c7 -3 16 -2 19 1 4 3 -2 6 -13 5 -11 0 -14 -3 -6 -6z"/>
<path d="M6138 143 c7 -3 16 -2 19 1 4 3 -2 6 -13 5 -11 0 -14 -3 -6 -6z"/>
<path d="M4188 133 c7 -3 16 -2 19 1 4 3 -2 6 -13 5 -11 0 -14 -3 -6 -6z"/>
<path d="M6078 133 c6 -2 18 -2 25 0 6 3 1 5 -13 5 -14 0 -19 -2 -12 -5z"/>
<path d="M4238 123 c6 -2 18 -2 25 0 6 3 1 5 -13 5 -14 0 -19 -2 -12 -5z"/>
<path d="M6028 123 c7 -3 16 -2 19 1 4 3 -2 6 -13 5 -11 0 -14 -3 -6 -6z"/>
<path d="M4298 113 c6 -2 18 -2 25 0 6 3 1 5 -13 5 -14 0 -19 -2 -12 -5z"/>
<path d="M5968 113 c6 -2 18 -2 25 0 6 3 1 5 -13 5 -14 0 -19 -2 -12 -5z"/>
<path d="M4358 103 c6 -2 18 -2 25 0 6 3 1 5 -13 5 -14 0 -19 -2 -12 -5z"/>
<path d="M5903 103 c9 -2 23 -2 30 0 6 3 -1 5 -18 5 -16 0 -22 -2 -12 -5z"/>
<path d="M4433 93 c9 -2 23 -2 30 0 6 3 -1 5 -18 5 -16 0 -22 -2 -12 -5z"/>
<path d="M5833 93 c9 -2 23 -2 30 0 6 3 -1 5 -18 5 -16 0 -22 -2 -12 -5z"/>
<path d="M4513 83 c9 -2 23 -2 30 0 6 3 -1 5 -18 5 -16 0 -22 -2 -12 -5z"/>
<path d="M5753 83 c9 -2 25 -2 35 0 9 3 1 5 -18 5 -19 0 -27 -2 -17 -5z"/>
<path d="M4593 73 c9 -2 25 -2 35 0 9 3 1 5 -18 5 -19 0 -27 -2 -17 -5z"/>
<path d="M5658 73 c12 -2 30 -2 40 0 9 3 -1 5 -23 4 -22 0 -30 -2 -17 -4z"/>
<path d="M4698 63 c12 -2 32 -2 45 0 12 2 2 4 -23 4 -25 0 -35 -2 -22 -4z"/>
<path d="M5548 63 c12 -2 32 -2 45 0 12 2 2 4 -23 4 -25 0 -35 -2 -22 -4z"/>
<path d="M4838 53 c17 -2 47 -2 65 0 17 2 3 4 -33 4 -36 0 -50 -2 -32 -4z"/>
<path d="M5388 53 c17 -2 47 -2 65 0 17 2 3 4 -33 4 -36 0 -50 -2 -32 -4z"/>
<path d="M5078 43 c34 -2 90 -2 125 0 34 2 6 3 -63 3 -69 0 -97 -1 -62 -3z"/>
</g>
</svg>
